[Header]
FileType HTR
DataType HTRS
FileVersion 1
NumSegments 64
NumFrames 4
DataFrameRate 24
EulerRotationOrder ZYX
CalibrationUnits mm
RotationUnits Degrees
GlobalAxisofGravity Y
BoneLengthAxis Y
ScaleFactor 1.0
[SegmentNames&Hierarchy]
Hips	GLOBAL
Spine	Hips
Spine1	Spine
Spine2	Spine1
Neck	Spine2
Head	Neck
LeftEye	Head
RightEye	Head
LeftShoulder	Spine2
LeftArm	LeftShoulder
LeftForeArm	LeftArm
LeftHand	LeftForeArm
LeftHandThumb1	LeftHand
LeftHandThumb2	LeftHandThumb1
LeftHandThumb3	LeftHandThumb2
LeftHandThumb4	LeftHandThumb3
LeftHandIndex1	LeftHand
LeftHandIndex2	LeftHandIndex1
LeftHandIndex3	LeftHandIndex2
LeftHandIndex4	LeftHandIndex3
LeftHandMiddle1	LeftHand
LeftHandMiddle2	LeftHandMiddle1
LeftHandMiddle3	LeftHandMiddle2
LeftHandMiddle4	LeftHandMiddle3
LeftHandRing1	LeftHand
LeftHandRing2	LeftHandRing1
LeftHandRing3	LeftHandRing2
LeftHandRing4	LeftHandRing3
LeftHandPinky1	LeftHand
LeftHandPinky2	LeftHandPinky1
LeftHandPinky3	LeftHandPinky2
LeftHandPinky4	LeftHandPinky3
RightShoulder	Spine2
RightArm	RightShoulder
RightForeArm	RightArm
RightHand	RightForeArm
RightHandPinky1	RightHand
RightHandPinky2	RightHandPinky1
RightHandPinky3	RightHandPinky2
RightHandPinky4	RightHandPinky3
RightHandRing1	RightHand
RightHandRing2	RightHandRing1
RightHandRing3	RightHandRing2
RightHandRing4	RightHandRing3
RightHandMiddle1	RightHand
RightHandMiddle2	RightHandMiddle1
RightHandMiddle3	RightHandMiddle2
RightHandMiddle4	RightHandMiddle3
RightHandIndex1	RightHand
RightHandIndex2	RightHandIndex1
RightHandIndex3	RightHandIndex2
RightHandIndex4	RightHandIndex3
RightHandThumb1	RightHand
RightHandThumb2	RightHandThumb1
RightHandThumb3	RightHandThumb2
RightHandThumb4	RightHandThumb3
LeftUpLeg	Hips
LeftLeg	LeftUpLeg
LeftFoot	LeftLeg
LeftToeBase	LeftFoot
RightUpLeg	Hips
RightLeg	RightUpLeg
RightFoot	RightLeg
RightToeBase	RightFoot
[BasePosition]
Hips	0	0	0	0	0	0	1
Spine	0	0	0	0	0	0	1
Spine1	0	0	0	0	0	0	1
Spine2	0	0	0	0	0	0	1
Neck	0	0	0	0	0	0	1
Head	0	0	0	0	0	0	1
LeftEye	0	0	0	0	0	0	1
RightEye	0	0	0	0	0	0	1
LeftShoulder	0	0	0	0	0	0	1
LeftArm	0	0	0	0	0	0	1
LeftForeArm	0	0	0	0	0	0	1
LeftHand	0	0	0	0	0	0	1
LeftHandThumb1	0	0	0	0	0	0	1
LeftHandThumb2	0	0	0	0	0	0	1
LeftHandThumb3	0	0	0	0	0	0	1
LeftHandThumb4	0	0	0	0	0	0	1
LeftHandIndex1	0	0	0	0	0	0	1
LeftHandIndex2	0	0	0	0	0	0	1
LeftHandIndex3	0	0	0	0	0	0	1
LeftHandIndex4	0	0	0	0	0	0	1
LeftHandMiddle1	0	0	0	0	0	0	1
LeftHandMiddle2	0	0	0	0	0	0	1
LeftHandMiddle3	0	0	0	0	0	0	1
LeftHandMiddle4	0	0	0	0	0	0	1
LeftHandRing1	0	0	0	0	0	0	1
LeftHandRing2	0	0	0	0	0	0	1
LeftHandRing3	0	0	0	0	0	0	1
LeftHandRing4	0	0	0	0	0	0	1
LeftHandPinky1	0	0	0	0	0	0	1
LeftHandPinky2	0	0	0	0	0	0	1
LeftHandPinky3	0	0	0	0	0	0	1
LeftHandPinky4	0	0	0	0	0	0	1
RightShoulder	0	0	0	0	0	0	1
RightArm	0	0	0	0	0	0	1
RightForeArm	0	0	0	0	0	0	1
RightHand	0	0	0	0	0	0	1
RightHandPinky1	0	0	0	0	0	0	1
RightHandPinky2	0	0	0	0	0	0	1
RightHandPinky3	0	0	0	0	0	0	1
RightHandPinky4	0	0	0	0	0	0	1
RightHandRing1	0	0	0	0	0	0	1
RightHandRing2	0	0	0	0	0	0	1
RightHandRing3	0	0	0	0	0	0	1
RightHandRing4	0	0	0	0	0	0	1
RightHandMiddle1	0	0	0	0	0	0	1
RightHandMiddle2	0	0	0	0	0	0	1
RightHandMiddle3	0	0	0	0	0	0	1
RightHandMiddle4	0	0	0	0	0	0	1
RightHandIndex1	0	0	0	0	0	0	1
RightHandIndex2	0	0	0	0	0	0	1
RightHandIndex3	0	0	0	0	0	0	1
RightHandIndex4	0	0	0	0	0	0	1
RightHandThumb1	0	0	0	0	0	0	1
RightHandThumb2	0	0	0	0	0	0	1
RightHandThumb3	0	0	0	0	0	0	1
RightHandThumb4	0	0	0	0	0	0	1
LeftUpLeg	0	0	0	0	0	0	1
LeftLeg	0	0	0	0	0	0	1
LeftFoot	0	0	0	0	0	0	1
LeftToeBase	0	0	0	0	0	0	1
RightUpLeg	0	0	0	0	0	0	1
RightLeg	0	0	0	0	0	0	1
RightFoot	0	0	0	0	0	0	1
RightToeBase	0	0	0	0	0	0	1
[Hips]
106	-137.2003021	874.9805298	1191.026489	-395.6878662	122.5407867	-34.9084053	1.0
107	-140.7676544	879.4267578	1162.137573	-405.8720093	113.707756	-45.92710876	1.0
108	-143.3049622	886.2156982	1123.973267	-417.8859863	105.1231842	-58.77364731	1.0
109	-139.9954987	899.9689941	1072.284912	-432.2653809	97.1023941	-74.00029755	1.0
[Spine]
106	0	101.8159943	1.315000057	2.086829662	6.003530025	-0.9196982384	1.0
107	0	101.8159943	1.315000057	2.176256418	5.050783634	-0.8697270751	1.0
108	0	101.8159943	1.315000057	2.257186413	3.882737398	-0.7719461918	1.0
109	0	101.8159943	1.315000057	2.59109354	2.475009203	-0.655451417	1.0
[Spine1]
106	0	100.8349991	-10.00800037	4.125516415	12.61808395	-1.171445966	1.0
107	0	100.8349991	-10.00800037	4.318150043	10.33131695	-1.086665988	1.0
108	0	100.8349991	-10.00800037	4.494605064	7.691479683	-0.9191739559	1.0
109	0	100.8349991	-10.00800037	5.166383743	4.86334753	-1.017076492	1.0
[Spine2]
106	0	91	-13.73399925	4.125515461	12.61809254	-1.17144537	1.0
107	0	91	-13.73399925	4.318150043	10.33130455	-1.086667657	1.0
108	0	91	-13.73399925	4.494605064	7.691494465	-0.9191737771	1.0
109	0	91	-13.73399925	5.166386127	4.863320827	-1.017076731	1.0
[Neck]
106	0	166.7169952	-25.16200066	-0.8346307278	-5.691978455	3.358109951	1.0
107	0	166.7169952	-25.16200066	0.4339374304	-6.568445683	4.054189205	1.0
108	0	166.7169952	-25.16200066	1.881066084	-7.526734352	4.725336075	1.0
109	0	166.7169952	-25.16200066	3.91086483	-8.346786499	5.362360477	1.0
[Head]
106	0	96.17900085	16.84999847	-23.55703545	-17.2841835	2.733322382	1.0
107	0	96.17900085	16.84999847	-22.33478165	-22.19155121	4.401772976	1.0
108	0	96.17900085	16.84999847	-22.65341187	-27.81856346	7.70114851	1.0
109	0	96.17900085	16.84999847	-24.13790321	-32.94672012	11.42772007	1.0
[LeftEye]
106	30.6760006	64.09500122	92.83599854	0	0	0	1.0
107	30.6760006	64.09500122	92.83599854	0	0	0	1.0
108	30.6760006	64.09500122	92.83599854	0	0	0	1.0
109	30.6760006	64.09500122	92.83599854	0	0	0	1.0
[RightEye]
106	-30.6760006	64.09500122	92.83499908	0	0	0	1.0
107	-30.6760006	64.09500122	92.83499908	0	0	0	1.0
108	-30.6760006	64.09500122	92.83499908	0	0	0	1.0
109	-30.6760006	64.09500122	92.83499908	0	0	0	1.0
[LeftShoulder]
106	45.70400238	109.4599991	-26.28000069	0.1687355191	6.542613029	5.439368248	1.0
107	45.70400238	109.4599991	-26.28000069	0.01647642814	3.776535749	5.842566013	1.0
108	45.70400238	109.4599991	-26.28000069	-0.4069361091	-2.462211847	6.487172604	1.0
109	45.70400238	109.4599991	-26.28000069	-1.116912842	-10.67907619	7.313635349	1.0
[LeftArm]
106	105.923996	-5.24600029	-22.32099915	24.52326965	2.85347867	-72.68231201	1.0
107	105.923996	-5.24600029	-22.32099915	22.65182686	-1.95210886	-66.48068237	1.0
108	105.923996	-5.24600029	-22.32099915	20.09891891	-9.754063606	-60.38734055	1.0
109	105.923996	-5.24600029	-22.32099915	12.13690567	-24.76450539	-52.10448837	1.0
[LeftForeArm]
106	278.414978	-0.0009999999311	0	-542.805481	-44.04925537	540.6132813	1.0
107	278.414978	-0.0009999999311	0	-542.8610229	-44.62231445	540.4602051	1.0
108	278.414978	-0.0009999999311	0	-542.9307861	-48.26989365	540.3994141	1.0
109	278.414978	-0.0009999999311	0	-543.5045166	-63.25675964	540.7879028	1.0
[LeftHand]
106	283.2879944	0	0	4.640386105	2.541703224	13.57158089	1.0
107	283.2879944	0	0	5.697725773	0.2775273621	11.09606743	1.0
108	283.2879944	0	0	6.711833954	-2.835776567	10.78518772	1.0
109	283.2879944	0	0	3.931151152	-8.04547596	10.10031605	1.0
[LeftHandThumb1]
106	24.6609993	-15.75	26.8239994	6.564957619	-13.13803959	26.56485558	1.0
107	24.6609993	-15.75	26.8239994	7.579329491	-12.5365963	26.64700699	1.0
108	24.6609993	-15.75	26.8239994	9.332753181	-11.22938919	26.68699455	1.0
109	24.6609993	-15.75	26.8239994	12.21893406	-10.91295624	21.81196404	1.0
[LeftHandThumb2]
106	32.29800034	-18.64699936	18.64699936	10.01627922	5.778729916	-19.46529198	1.0
107	32.29800034	-18.64699936	18.64699936	9.797914505	7.074992657	-18.79151917	1.0
108	32.29800034	-18.64699936	18.64699936	9.313499451	9.429614067	-17.22662354	1.0
109	32.29800034	-18.64699936	18.64699936	8.682084084	12.17750645	-15.45501041	1.0
[LeftHandThumb3]
106	26.52600098	-15.31499958	15.31499958	3.601811159e-06	-8.438974328e-05	-6.943767221e-05	1.0
107	26.52600098	-15.31499958	15.31499958	3.601811159e-06	-8.438974328e-05	-6.943767221e-05	1.0
108	26.52600098	-15.31499958	15.31499958	3.601811159e-06	-8.438974328e-05	-6.943767221e-05	1.0
109	26.52600098	-15.31499958	15.31499958	3.601811159e-06	-8.438974328e-05	-6.943767221e-05	1.0
[LeftHandThumb4]
106	19.54599953	-11.28499985	11.28499985	0	0	0	1.0
107	19.54599953	-11.28499985	11.28499985	0	0	0	1.0
108	19.54599953	-11.28499985	11.28499985	0	0	0	1.0
109	19.54599953	-11.28499985	11.28499985	0	0	0	1.0
[LeftHandIndex1]
106	91.09299469	-5.170999527	22.60099792	-1.128102541	-2.627753258	-25.51191521	1.0
107	91.09299469	-5.170999527	22.60099792	-1.163009524	-2.822755337	-26.39202499	1.0
108	91.09299469	-5.170999527	22.60099792	-1.200980783	-3.144635201	-27.60930061	1.0
109	91.09299469	-5.170999527	22.60099792	-1.247315407	-3.529802561	-29.13787079	1.0
[LeftHandIndex2]
106	36.76399994	0	0	-1.02632165	-1.732748628	-35.35089111	1.0
107	36.76399994	0	0	-1.067077756	-1.98305428	-37.12691498	1.0
108	36.76399994	0	0	-1.108598351	-2.311458349	-39.44526672	1.0
109	36.76399994	0	0	-1.140918493	-2.708722115	-42.23742294	1.0
[LeftHandIndex3]
106	28.83100128	0	0	-1.432096042e-06	3.907105395e-07	1.552835329e-06	1.0
107	28.83100128	0	0	-1.432096042e-06	3.907105395e-07	1.552835329e-06	1.0
108	28.83100128	0	0	-1.432096042e-06	3.907105395e-07	1.552835329e-06	1.0
109	28.83100128	0	0	-1.432096042e-06	3.907105395e-07	1.552835329e-06	1.0
[LeftHandIndex4]
106	23.92700005	0	0	0	0	0	1.0
107	23.92700005	0	0	0	0	0	1.0
108	23.92700005	0	0	0	0	0	1.0
109	23.92700005	0	0	0	0	0	1.0
[LeftHandMiddle1]
106	95.33399963	0	0	-1.515826225	-1.76258409	-32.43976593	1.0
107	95.33399963	0	0	-1.555801392	-1.890214682	-33.44543839	1.0
108	95.33399963	0	0	-1.606227756	-2.064322233	-34.80583191	1.0
109	95.33399963	0	0	-1.662740588	-2.280387878	-36.48187637	1.0
[LeftHandMiddle2]
106	36.98199844	0	0	-0.687376678	-2.997512579	-32.85486603	1.0
107	36.98199844	0	0	-0.6960300207	-3.229213953	-34.75411224	1.0
108	36.98199844	0	0	-0.6959277391	-3.521943331	-37.15270996	1.0
109	36.98199844	0	0	-0.6801579595	-3.865855932	-39.97465897	1.0
[LeftHandMiddle3]
106	29.50900078	0	0	0	-3.180554719e-15	-7.951386796e-16	1.0
107	29.50900078	0	0	0	-3.180554719e-15	-7.951386796e-16	1.0
108	29.50900078	0	0	0	-3.180554719e-15	-7.951386796e-16	1.0
109	29.50900078	0	0	0	-3.180554719e-15	-7.951386796e-16	1.0
[LeftHandMiddle4]
106	28.3390007	0	0	0	0	0	1.0
107	28.3390007	0	0	0	0	0	1.0
108	28.3390007	0	0	0	0	0	1.0
109	28.3390007	0	0	0	0	0	1.0
[LeftHandRing1]
106	91.04499817	-0.4390000105	-18.65100098	-3.421162605	4.011839867	-42.08207703	1.0
107	91.04499817	-0.4390000105	-18.65100098	-3.427465677	3.844536304	-43.06822586	1.0
108	91.04499817	-0.4390000105	-18.65100098	-3.429883718	3.610054731	-44.39684677	1.0
109	91.04499817	-0.4390000105	-18.65100098	-3.426451683	3.318840265	-46.02821732	1.0
[LeftHandRing2]
106	31.54000092	0	0	2.351519585	-2.714801311	-40.80487061	1.0
107	31.54000092	0	0	2.509771347	-2.750254631	-42.68592834	1.0
108	31.54000092	0	0	2.708112955	-2.787083626	-45.02585602	1.0
109	31.54000092	0	0	2.940221786	-2.819678307	-47.74488068	1.0
[LeftHandRing3]
106	29.37700081	0	0	1.590277359e-15	3.180554719e-15	-7.951386796e-16	1.0
107	29.37700081	0	0	1.590277359e-15	3.180554719e-15	-7.951386796e-16	1.0
108	29.37700081	0	0	1.590277359e-15	3.180554719e-15	-7.951386796e-16	1.0
109	29.37700081	0	0	1.590277359e-15	3.180554719e-15	-7.951386796e-16	1.0
[LeftHandRing4]
106	26.47500038	0	0	0	0	0	1.0
107	26.47500038	0	0	0	0	0	1.0
108	26.47500038	0	0	0	0	0	1.0
109	26.47500038	0	0	0	0	0	1.0
[LeftHandPinky1]
106	80.77799988	-4.887000084	-38.06099701	-4.138314724	9.957113266	-38.80241776	1.0
107	80.77799988	-4.887000084	-38.06099701	-4.11972332	9.627122879	-39.72917175	1.0
108	80.77799988	-4.887000084	-38.06099701	-4.078194618	9.100682259	-40.98535156	1.0
109	80.77799988	-4.887000084	-38.06099701	-4.024727821	8.458615303	-42.54129791	1.0
[LeftHandPinky2]
106	36	0	0	6.272632122	-3.423506975	-57.88461685	1.0
107	36	0	0	6.415585995	-3.307015419	-59.09976196	1.0
108	36	0	0	6.600811005	-3.149437189	-60.69137192	1.0
109	36	0	0	6.819675446	-2.952049971	-62.61262131	1.0
[LeftHandPinky3]
106	21.14200211	0	0	3.226109357e-06	2.925280342e-06	-5.739977951e-06	1.0
107	21.14200211	0	0	3.226109357e-06	2.925280342e-06	-5.739977951e-06	1.0
108	21.14200211	0	0	3.226109357e-06	2.925280342e-06	-5.739977951e-06	1.0
109	21.14200211	0	0	3.226109357e-06	2.925280342e-06	-5.739977951e-06	1.0
[LeftHandPinky4]
106	19.75699997	0	0	0	0	0	1.0
107	19.75699997	0	0	0	0	0	1.0
108	19.75699997	0	0	0	0	0	1.0
109	19.75699997	0	0	0	0	0	1.0
[RightShoulder]
106	-45.70000076	109.4620056	-26.28000069	5.677011967	15.57551289	11.65113735	1.0
107	-45.70000076	109.4620056	-26.28000069	4.975173473	14.7058754	11.30772209	1.0
108	-45.70000076	109.4620056	-26.28000069	3.865333796	13.68519115	10.91458797	1.0
109	-45.70000076	109.4620056	-26.28000069	2.354582548	9.565615654	10.57080269	1.0
[RightArm]
106	-105.9280014	-5.248000145	-22.32099915	-310.7410889	32.53126144	-300.8049927	1.0
107	-105.9280014	-5.248000145	-22.32099915	-303.9933472	39.14731216	-300.8052063	1.0
108	-105.9280014	-5.248000145	-22.32099915	-300.1643982	46.06772614	-301.4054565	1.0
109	-105.9280014	-5.248000145	-22.32099915	-300.2192383	50.18842316	-301.0698547	1.0
[RightForeArm]
106	-278.414978	0	0	-1.971934199	58.89762878	-0.8804875612	1.0
107	-278.414978	0	0	-1.933344364	65.8861618	-0.6848658919	1.0
108	-278.414978	0	0	-2.106383562	75.23927307	-0.7009678483	1.0
109	-278.414978	0	0	-8.542344093	88.1762619	-7.156364441	1.0
[RightHand]
106	-283.2879944	0	0.0009999999311	19.70598984	11.33831501	22.88207626	1.0
107	-283.2879944	0	0.0009999999311	21.62270164	9.577693939	17.86663246	1.0
108	-283.2879944	0	0.0009999999311	25.76145935	8.57482338	11.09793663	1.0
109	-283.2879944	0	0.0009999999311	30.98973465	7.946108341	9.187929153	1.0
[RightHandPinky1]
106	-80.76699829	-4.885000229	-38.06000137	-0.4644837677	-5.455943108	44.3723526	1.0
107	-80.76699829	-4.885000229	-38.06000137	-0.6640751958	-5.590417385	43.88594818	1.0
108	-80.76699829	-4.885000229	-38.06000137	-0.9551466107	-5.319805145	44.59757996	1.0
109	-80.76699829	-4.885000229	-38.06000137	-1.309436083	-4.724739075	46.22218704	1.0
[RightHandPinky2]
106	-36	0	0.0009999999311	8.411580086	5.830352306	61.5650444	1.0
107	-36	0	0.0009999999311	8.237967491	5.939880371	60.11540604	1.0
108	-36	0	0.0009999999311	8.196969032	6.007593632	59.21799469	1.0
109	-36	0	0.0009999999311	8.25268364	6.05092907	58.70606995	1.0
[RightHandPinky3]
106	-21.14200211	0	0	-1.590277359e-15	0	-7.951386796e-16	1.0
107	-21.14200211	0	0	-1.590277359e-15	0	-7.951386796e-16	1.0
108	-21.14200211	0	0	-1.590277359e-15	0	-7.951386796e-16	1.0
109	-21.14200211	0	0	-1.590277359e-15	0	-7.951386796e-16	1.0
[RightHandPinky4]
106	-19.75699997	0	0	0	0	0	1.0
107	-19.75699997	0	0	0	0	0	1.0
108	-19.75699997	0	0	0	0	0	1.0
109	-19.75699997	0	0	0	0	0	1.0
[RightHandRing1]
106	-91.03599548	-0.4390000105	-18.65100098	-1.539932251	-1.542373419	46.72453308	1.0
107	-91.03599548	-0.4390000105	-18.65100098	-1.734487772	-1.714061022	45.96904755	1.0
108	-91.03599548	-0.4390000105	-18.65100098	-2.015871286	-1.639117956	46.31932449	1.0
109	-91.03599548	-0.4390000105	-18.65100098	-2.360179424	-1.368826628	47.51429749	1.0
[RightHandRing2]
106	-31.54000092	0	0	2.865009546	3.649130106	42.36772156	1.0
107	-31.54000092	0	0	2.765423298	3.603965759	41.05719376	1.0
108	-31.54000092	0	0	2.767100334	3.591575861	40.55760193	1.0
109	-31.54000092	0	0	2.841742992	3.605049849	40.6384201	1.0
[RightHandRing3]
106	-29.37700081	0	0	5.740008078e-07	-7.531911024e-07	-2.69121324e-06	1.0
107	-29.37700081	0	0	5.740008078e-07	-7.531911024e-07	-2.69121324e-06	1.0
108	-29.37700081	0	0	5.740008078e-07	-7.531911024e-07	-2.69121324e-06	1.0
109	-29.37700081	0	0	5.740008078e-07	-7.531911024e-07	-2.69121324e-06	1.0
[RightHandRing4]
106	-26.47500038	0	0	0	0	0	1.0
107	-26.47500038	0	0	0	0	0	1.0
108	-26.47500038	0	0	0	0	0	1.0
109	-26.47500038	0	0	0	0	0	1.0
[RightHandMiddle1]
106	-95.32500458	0	0	-2.861961603	2.558757782	38.837677	1.0
107	-95.32500458	0	0	-2.834939957	2.411994934	38.20942688	1.0
108	-95.32500458	0	0	-2.834442139	2.378201962	38.75233078	1.0
109	-95.32500458	0	0	-2.851202965	2.430971146	40.19152832	1.0
[RightHandMiddle2]
106	-36.98199844	0	0	-0.9585271478	3.06969738	39.40928268	1.0
107	-36.98199844	0	0	-0.9979254603	2.920627594	38.06967926	1.0
108	-36.98199844	0	0	-1.071343541	2.874869823	37.74391556	1.0
109	-36.98199844	0	0	-1.172075748	2.902414322	38.14865875	1.0
[RightHandMiddle3]
106	-29.50900078	0	0	1.856611448e-06	-0.002022909233	1.577868488e-06	1.0
107	-29.50900078	0	0	1.856611448e-06	-0.002022909233	1.577868488e-06	1.0
108	-29.50900078	0	0	1.856611448e-06	-0.002022909233	1.577868488e-06	1.0
109	-29.50900078	0	0	1.856611448e-06	-0.002022909233	1.577868488e-06	1.0
[RightHandMiddle4]
106	-28.3390007	0	0.0009999999311	0	0	0	1.0
107	-28.3390007	0	0.0009999999311	0	0	0	1.0
108	-28.3390007	0	0.0009999999311	0	0	0	1.0
109	-28.3390007	0	0.0009999999311	0	0	0	1.0
[RightHandIndex1]
106	-91.08300018	-5.167999744	22.60099792	-2.748807907	2.115237236	31.0181427	1.0
107	-91.08300018	-5.167999744	22.60099792	-2.585496902	1.926875353	30.62277222	1.0
108	-91.08300018	-5.167999744	22.60099792	-2.411973476	1.747893691	31.65757942	1.0
109	-91.08300018	-5.167999744	22.60099792	-2.224437475	1.57246995	33.78785706	1.0
[RightHandIndex2]
106	-36.76399994	0	0	-1.415426493	1.54623723	39.60652542	1.0
107	-36.76399994	0	0	-1.443559051	1.373862267	38.31194305	1.0
108	-36.76399994	0	0	-1.543619275	1.334397793	38.1447525	1.0
109	-36.76399994	0	0	-1.69672668	1.381145835	38.73656082	1.0
[RightHandIndex3]
106	-28.83100128	0	0	-3.180554719e-15	0	0	1.0
107	-28.83100128	0	0	-3.180554719e-15	0	0	1.0
108	-28.83100128	0	0	-3.180554719e-15	0	0	1.0
109	-28.83100128	0	0	-3.180554719e-15	0	0	1.0
[RightHandIndex4]
106	-23.92700005	0	0	0	0	0	1.0
107	-23.92700005	0	0	0	0	0	1.0
108	-23.92700005	0	0	0	0	0	1.0
109	-23.92700005	0	0	0	0	0	1.0
[RightHandThumb1]
106	-24.64799881	-15.72700024	26.82600021	6.514499664	13.14110661	-26.22604942	1.0
107	-24.64799881	-15.72700024	26.82600021	6.597901821	13.26271152	-25.29403877	1.0
108	-24.64799881	-15.72700024	26.82600021	6.613916397	13.37994671	-23.81542969	1.0
109	-24.64799881	-15.72700024	26.82600021	6.588680744	13.48844051	-21.91208076	1.0
[RightHandThumb2]
106	-32.29800034	-18.64699936	18.64699936	9.93457222	-5.99059391	19.66617012	1.0
107	-32.29800034	-18.64699936	18.64699936	9.955302238	-7.088225365	20.64426231	1.0
108	-32.29800034	-18.64699936	18.64699936	9.813791275	-8.552941322	21.92802811	1.0
109	-32.29800034	-18.64699936	18.64699936	9.515898705	-10.30790329	23.44113731	1.0
[RightHandThumb3]
106	-26.52600098	-15.31399918	15.31399918	-3.81245151e-08	-0.00121095567	-0.001221005921	1.0
107	-26.52600098	-15.31399918	15.31399918	-3.81245151e-08	-0.00121095567	-0.001221005921	1.0
108	-26.52600098	-15.31399918	15.31399918	-3.81245151e-08	-0.00121095567	-0.001221005921	1.0
109	-26.52600098	-15.31399918	15.31399918	-3.81245151e-08	-0.00121095567	-0.001221005921	1.0
[RightHandThumb4]
106	-19.54599953	-11.28499985	11.28499985	0	0	0	1.0
107	-19.54599953	-11.28499985	11.28499985	0	0	0	1.0
108	-19.54599953	-11.28499985	11.28499985	0	0	0	1.0
109	-19.54599953	-11.28499985	11.28499985	0	0	0	1.0
[LeftUpLeg]
106	82.07800293	-67.51699829	-15.99599934	-47.77041626	-16.79711723	0.3416105807	1.0
107	82.07800293	-67.51699829	-15.99599934	-45.63306046	-12.97027493	0.1976135969	1.0
108	82.07800293	-67.51699829	-15.99599934	-43.77378845	-8.263578415	-0.04539003596	1.0
109	82.07800293	-67.51699829	-15.99599934	-40.51513672	-2.947231054	-1.812931538	1.0
[LeftLeg]
106	0	-443.7049866	2.845999956	50.87269592	-13.26982212	-0.7025774121	1.0
107	0	-443.7049866	2.845999956	52.71143723	-12.56571198	-0.3975024819	1.0
108	0	-443.7049866	2.845999956	54.64266586	-10.64266586	-0.8017411828	1.0
109	0	-443.7049866	2.845999956	55.06969833	-8.994951248	-2.526726723	1.0
[LeftFoot]
106	0	-444.2789917	-29.8219986	-2.878602028	-26.69010162	-13.10422039	1.0
107	0	-444.2789917	-29.8219986	-10.47661591	-23.79990768	-11.54584217	1.0
108	0	-444.2789917	-29.8219986	-16.72609711	-19.84409714	-8.04282856	1.0
109	0	-444.2789917	-29.8219986	-19.17413902	-13.48202324	-4.695495129	1.0
[LeftToeBase]
106	0	-87.28699493	107.1060028	-1.056496382	-5.533958301e-06	2.094916226e-06	1.0
107	0	-87.28699493	107.1060028	2.168522835	7.443838967e-06	2.769540288e-06	1.0
108	0	-87.28699493	107.1060028	4.846880436	2.6059015e-05	-4.720374363e-06	1.0
109	0	-87.28699493	107.1060028	3.150388718	9.876605873e-06	-3.189005383e-06	1.0
[RightUpLeg]
106	-82.07800293	-67.51699829	-15.99599934	2.627294302	-26.93721962	-18.66158295	1.0
107	-82.07800293	-67.51699829	-15.99599934	-0.6008484364	-24.20122719	-22.56158829	1.0
108	-82.07800293	-67.51699829	-15.99599934	-5.082583427	-22.39320374	-25.69634056	1.0
109	-82.07800293	-67.51699829	-15.99599934	-7.254288673	-20.73541641	-29.55836487	1.0
[RightLeg]
106	0	-443.7049866	2.861999989	55.54615021	-7.889298916	-6.341407776	1.0
107	0	-443.7049866	2.861999989	53.36952972	-1.54067111	-4.674681664	1.0
108	0	-443.7049866	2.861999989	49.45100784	4.903787136	-3.021102667	1.0
109	0	-443.7049866	2.861999989	40.49663925	10.62155724	-1.72102201	1.0
[RightFoot]
106	0	-444.2770081	-29.83799934	-35.90298462	1.196186781	23.19721413	1.0
107	0	-444.2770081	-29.83799934	-34.54861069	4.067733765	22.26683426	1.0
108	0	-444.2770081	-29.83799934	-31.24860382	7.276984215	22.16551399	1.0
109	0	-444.2770081	-29.83799934	-23.77972412	10.16123867	23.93359184	1.0
[RightToeBase]
106	0	-87.28699493	107.1060028	-13.84761715	1.670056463e-06	-1.576058025e-06	1.0
107	0	-87.28699493	107.1060028	-12.75354481	-2.405819941e-05	-4.737106337e-06	1.0
108	0	-87.28699493	107.1060028	-11.0680027	-1.111254642e-05	5.72734325e-06	1.0
109	0	-87.28699493	107.1060028	-9.462591171	1.768229049e-05	-6.270506219e-06	1.0
[EndOfFile]
